<svg width="25" height="24" viewBox="0 0 25 24" fill="none" xmlns="http://www.w3.org/2000/svg">
<g id="star">
<path id="Vector" d="M11.6033 3.81663C11.9701 3.07346 13.0299 3.07346 13.3967 3.81663L15.3576 7.78909C15.5031 8.08394 15.7843 8.2884 16.1096 8.33595L20.4962 8.97712C21.3161 9.09696 21.6429 10.1048 21.0493 10.683L17.8768 13.773C17.6409 14.0027 17.5333 14.3339 17.5889 14.6584L18.3374 19.0226C18.4775 19.8396 17.62 20.4626 16.8864 20.0767L12.9655 18.0148C12.6741 17.8615 12.3259 17.8615 12.0345 18.0148L8.11363 20.0767C7.38 20.4626 6.52245 19.8396 6.66257 19.0226L7.41109 14.6584C7.46675 14.3339 7.35908 14.0027 7.12321 13.773L3.95068 10.683C3.35708 10.1048 3.68387 9.09696 4.50378 8.97712L8.89037 8.33595C9.21572 8.2884 9.49691 8.08394 9.64245 7.78909L11.6033 3.81663Z" fill="#F8BD38"/>
</g>
</svg>
